 <svg width="36" height="37" viewBox="0 0 36 37" fill="none" xmlns="http://www.w3.org/2000/svg">
        <path
          fill-rule="evenodd"
          clip-rule="evenodd"
          d="M7 8.27313L6.93417 8.27313C6.04769 8.27308 5.28387 8.27304 4.67221 8.35528C4.01669 8.44341 3.38834 8.64215 2.87868 9.15181C2.36902 9.66148 2.17027 10.2898 2.08214 10.9453C1.99991 11.557 1.99995 12.3208 2 13.2073L2 13.2731V23.2731L2 23.339C1.99995 24.2255 1.99991 24.9893 2.08214 25.6009C2.17027 26.2564 2.36902 26.8848 2.87868 27.3945C3.38834 27.9041 4.01669 28.1029 4.67221 28.191C5.28388 28.2732 6.0477 28.2732 6.9342 28.2731L7 28.2731H29L29.0658 28.2731C29.9523 28.2732 30.7161 28.2732 31.3278 28.191C31.9833 28.1029 32.6117 27.9041 33.1213 27.3945C33.631 26.8848 33.8297 26.2564 33.9179 25.6009C34.0001 24.9893 34.0001 24.2254 34 23.3389L34 23.2731V13.2731L34 13.2073C34.0001 12.3208 34.0001 11.557 33.9179 10.9453C33.8297 10.2898 33.631 9.66148 33.1213 9.15181C32.6117 8.64215 31.9833 8.44341 31.3278 8.35528C30.7161 8.27304 29.9523 8.27308 29.0658 8.27313L29 8.27313H7ZM4.2929 10.566C4.36902 10.4899 4.50497 10.3958 4.93871 10.3374C5.40121 10.2753 6.02892 10.2731 7 10.2731H29C29.9711 10.2731 30.5988 10.2753 31.0613 10.3374C31.495 10.3958 31.631 10.4899 31.7071 10.566C31.7832 10.6422 31.8774 10.7781 31.9357 11.2118C31.9979 11.6743 32 12.3021 32 13.2731V23.2731C32 24.2442 31.9979 24.8719 31.9357 25.3344C31.8774 25.7682 31.7832 25.9041 31.7071 25.9802C31.631 26.0564 31.495 26.1505 31.0613 26.2088C30.5988 26.271 29.9711 26.2731 29 26.2731H7C6.02892 26.2731 5.40121 26.271 4.93871 26.2088C4.50497 26.1505 4.36902 26.0564 4.2929 25.9802C4.21677 25.9041 4.12262 25.7682 4.06431 25.3344C4.00213 24.8719 4 24.2442 4 23.2731V13.2731C4 12.3021 4.00213 11.6743 4.06431 11.2118C4.12262 10.7781 4.21677 10.6422 4.2929 10.566ZM15 20.2731C14.4477 20.2731 14 20.7208 14 21.2731C14 21.8254 14.4477 22.2731 15 22.2731H21C21.5523 22.2731 22 21.8254 22 21.2731C22 20.7208 21.5523 20.2731 21 20.2731H15ZM10.5 21.2731C10.5 22.1016 9.82843 22.7731 9 22.7731C8.17157 22.7731 7.5 22.1016 7.5 21.2731C7.5 20.4447 8.17157 19.7731 9 19.7731C9.82843 19.7731 10.5 20.4447 10.5 21.2731ZM27 22.7731C27.8284 22.7731 28.5 22.1016 28.5 21.2731C28.5 20.4447 27.8284 19.7731 27 19.7731C26.1716 19.7731 25.5 20.4447 25.5 21.2731C25.5 22.1016 26.1716 22.7731 27 22.7731ZM28.5 15.2731C28.5 16.1016 27.8284 16.7731 27 16.7731C26.1716 16.7731 25.5 16.1016 25.5 15.2731C25.5 14.4447 26.1716 13.7731 27 13.7731C27.8284 13.7731 28.5 14.4447 28.5 15.2731ZM9 16.7731C9.82843 16.7731 10.5 16.1016 10.5 15.2731C10.5 14.4447 9.82843 13.7731 9 13.7731C8.17157 13.7731 7.5 14.4447 7.5 15.2731C7.5 16.1016 8.17157 16.7731 9 16.7731ZM16.5 15.2731C16.5 16.1016 15.8284 16.7731 15 16.7731C14.1716 16.7731 13.5 16.1016 13.5 15.2731C13.5 14.4447 14.1716 13.7731 15 13.7731C15.8284 13.7731 16.5 14.4447 16.5 15.2731ZM21 16.7731C21.8284 16.7731 22.5 16.1016 22.5 15.2731C22.5 14.4447 21.8284 13.7731 21 13.7731C20.1716 13.7731 19.5 14.4447 19.5 15.2731C19.5 16.1016 20.1716 16.7731 21 16.7731Z"
          fill="#22282F"
        />
      </svg>