    <svg width="36" height="37" viewBox="0 0 36 37" fill="none" xmlns="http://www.w3.org/2000/svg">
        <path
          fill-rule="evenodd"
          clip-rule="evenodd"
          d="M8.92933 5.28671L8.9999 5.28671H26.9999L27.0705 5.28671C28.4246 5.28667 29.5412 5.28664 30.425 5.40546C31.3528 5.5302 32.1722 5.80217 32.8283 6.45828C33.4844 7.11439 33.7564 7.93381 33.8812 8.86164C34 9.7454 33.9999 10.862 33.9999 12.2161V12.2161V12.2162V12.2867V24.2867V24.3573V24.3573V24.3573C33.9999 25.7114 34 26.828 33.8812 27.7118C33.7564 28.6396 33.4844 29.459 32.8283 30.1151C32.1722 30.7712 31.3528 31.0432 30.425 31.168C29.5412 31.2868 28.4246 31.2867 27.0705 31.2867H27.0705H27.0704H26.9999H8.9999H8.92936H8.92934H8.92931C7.5752 31.2867 6.45859 31.2868 5.57484 31.168C4.64701 31.0432 3.82758 30.7712 3.17147 30.1151C2.51537 29.459 2.2434 28.6396 2.11865 27.7118C1.99984 26.828 1.99987 25.7114 1.9999 24.3573L1.9999 24.2867V12.2876V12.2867L1.9999 12.2859L1.9999 12.2161V12.2161C1.99987 10.862 1.99984 9.7454 2.11865 8.86164C2.2434 7.93381 2.51537 7.11439 3.17147 6.45828C3.82758 5.80217 4.64701 5.5302 5.57484 5.40546C6.4586 5.28664 7.57521 5.28667 8.92933 5.28671H8.92933ZM31.899 9.12814C31.973 9.679 31.9928 10.3684 31.998 11.2867H4.00178C4.00702 10.3684 4.02676 9.679 4.10082 9.12814C4.19575 8.42209 4.36312 8.09506 4.58569 7.87249C4.80826 7.64992 5.13528 7.48255 5.84133 7.38762C6.57615 7.28883 7.55742 7.28671 8.9999 7.28671H26.9999C28.4424 7.28671 29.4237 7.28883 30.1585 7.38762C30.8645 7.48255 31.1915 7.64992 31.4141 7.87249C31.6367 8.09506 31.8041 8.42209 31.899 9.12814ZM31.9999 13.2867H3.9999V24.2867C3.9999 25.7292 4.00203 26.7105 4.10082 27.4453C4.19575 28.1513 4.36312 28.4783 4.58569 28.7009C4.80826 28.9235 5.13528 29.0909 5.84133 29.1858C6.57615 29.2846 7.55742 29.2867 8.9999 29.2867H26.9999C28.4424 29.2867 29.4237 29.2846 30.1585 29.1858C30.8645 29.0909 31.1915 28.9235 31.4141 28.7009C31.6367 28.4783 31.8041 28.1513 31.899 27.4453C31.9978 26.7105 31.9999 25.7292 31.9999 24.2867V13.2867ZM8.9999 17.2867C8.44762 17.2867 7.9999 17.7344 7.9999 18.2867C7.9999 18.839 8.44762 19.2867 8.9999 19.2867H14.9999C15.5522 19.2867 15.9999 18.839 15.9999 18.2867C15.9999 17.7344 15.5522 17.2867 14.9999 17.2867H8.9999Z"
          fill="#22282F"
        />
      </svg>