 <svg width="37" height="37" viewBox="0 0 37 37" fill="none" xmlns="http://www.w3.org/2000/svg">
        <path
          fill-rule="evenodd"
          clip-rule="evenodd"
          d="M8.52157 3.78662C8.54253 3.78662 8.56356 3.78662 8.58467 3.78662C8.60123 3.78662 8.61775 3.78662 8.63421 3.78662C9.26167 3.78658 9.80978 3.78656 10.2619 3.83508C10.7481 3.88726 11.2211 4.00331 11.6603 4.29959C11.7755 4.3773 11.8852 4.46291 11.9885 4.55581C12.3825 4.91005 12.6098 5.34083 12.7783 5.79987C12.935 6.22669 13.068 6.75845 13.2201 7.36719L13.2321 7.41524L14.1565 11.1127L14.1678 11.1581C14.3059 11.7103 14.4276 12.197 14.4867 12.613C14.5506 13.0636 14.5555 13.5151 14.4026 13.9847C14.2497 14.4543 13.98 14.8164 13.663 15.143C13.3704 15.4445 12.9855 15.7662 12.5488 16.1313L12.5128 16.1613L9.05414 19.0529C11.0393 22.6856 13.8952 25.5415 17.5279 27.5267L20.4195 24.068L20.4495 24.032C20.8146 23.5953 21.1363 23.2105 21.4378 22.9178C21.7644 22.6009 22.1265 22.3311 22.5961 22.1782C23.0657 22.0253 23.5172 22.0302 23.9678 22.0941C24.3838 22.1532 24.8705 22.2749 25.4227 22.413L25.4681 22.4243L29.1656 23.3487L29.2136 23.3607C29.8223 23.5128 30.3541 23.6458 30.7809 23.8025C31.24 23.971 31.6708 24.1983 32.025 24.5923C32.1179 24.6956 32.2035 24.8053 32.2812 24.9205C32.5775 25.3597 32.6935 25.8327 32.7457 26.3189C32.7942 26.771 32.7942 27.3191 32.7942 27.9466V27.9961L32.7942 28.0592C32.7942 28.8583 32.7943 29.5547 32.7189 30.1197C32.6372 30.7316 32.4538 31.3149 31.9961 31.8095C31.8819 31.9328 31.7421 32.0596 31.6083 32.1612C31.0831 32.56 30.5096 32.6943 29.9086 32.7205C29.3642 32.7443 28.7112 32.6806 27.9757 32.6087L27.9119 32.6025C23.9657 32.2175 20.4175 31.232 17.329 29.6802C12.7418 27.3753 9.2055 23.839 6.90064 19.2518C5.34884 16.1633 4.36332 12.6151 3.9783 8.66886C3.97622 8.64756 3.97415 8.62632 3.97208 8.60516C3.90025 7.8696 3.83649 7.21663 3.86027 6.67216C3.88653 6.07118 4.02079 5.49771 4.41956 4.9725C4.52118 4.83866 4.648 4.69886 4.77134 4.58473C5.26593 4.12705 5.8492 3.94358 6.46115 3.86192C7.02614 3.78652 7.72255 3.78657 8.52157 3.78662ZM19.3774 28.4326C21.9489 29.5558 24.866 30.2958 28.1062 30.612C28.925 30.6918 29.4353 30.7393 29.8214 30.7224C30.1666 30.7074 30.3002 30.6433 30.3989 30.5684C30.4399 30.5372 30.4932 30.4889 30.5281 30.4511C30.6025 30.3707 30.6851 30.2399 30.7365 29.8551C30.7921 29.4381 30.7942 28.8768 30.7942 27.9961C30.7942 27.3047 30.7928 26.865 30.7571 26.5324C30.7238 26.222 30.6689 26.1067 30.6232 26.0389C30.5973 26.0005 30.5688 25.964 30.5378 25.9296C30.4832 25.8688 30.3846 25.7875 30.0916 25.6799C29.7775 25.5646 29.3513 25.4567 28.6805 25.289L24.9831 24.3646C24.3718 24.2118 23.9871 24.1169 23.6867 24.0743C23.4095 24.0349 23.2922 24.0549 23.2153 24.08C23.1383 24.105 23.0317 24.158 22.8308 24.353C22.6131 24.5643 22.358 24.8674 21.9539 25.3508L19.3774 28.4326ZM8.1482 17.2034L11.23 14.6269C11.7134 14.2228 12.0165 13.9677 12.2278 13.75C12.4228 13.5491 12.4758 13.4425 12.5008 13.3656C12.5259 13.2886 12.5459 13.1713 12.5065 12.8941C12.4639 12.5937 12.369 12.209 12.2162 11.5977L11.2918 7.90031C11.1241 7.22948 11.0162 6.80327 10.9009 6.48923C10.7933 6.19622 10.712 6.09765 10.6513 6.04302C10.6168 6.01205 10.5803 5.98351 10.5419 5.95761C10.4741 5.91191 10.3588 5.85697 10.0484 5.82366C9.71581 5.78796 9.27614 5.78662 8.58467 5.78662C7.70405 5.78662 7.14269 5.7887 6.7257 5.84434C6.34085 5.8957 6.21011 5.97826 6.12971 6.05266C6.09193 6.08762 6.04358 6.14091 6.01245 6.18191C5.9375 6.28064 5.87345 6.41424 5.85837 6.75944C5.8415 7.14549 5.88896 7.65583 5.96885 8.47465C6.28498 11.7148 7.02504 14.6319 8.1482 17.2034Z"
          fill="#22282F"
        />
      </svg>