  <svg width="36" height="37" viewBox="0 0 36 37" fill="none" xmlns="http://www.w3.org/2000/svg">
        <path
          fill-rule="evenodd"
          clip-rule="evenodd"
          d="M28.2533 3.80653C27.8628 3.41601 27.2296 3.41601 26.8391 3.80653C26.4486 4.19706 26.4486 4.83022 26.8391 5.22075C29.1023 7.4839 30.5003 10.6075 30.5003 14.0596C30.5003 20.9631 24.9038 26.5596 18.0003 26.5596C14.5482 26.5596 11.4246 25.1616 9.16145 22.8984C8.77093 22.5079 8.13776 22.5079 7.74724 22.8984C7.35671 23.2889 7.35671 23.9221 7.74724 24.3126C10.1499 26.7153 13.3947 28.2799 17.0003 28.5256V31.0596H13.5003C12.948 31.0596 12.5003 31.5073 12.5003 32.0596C12.5003 32.6119 12.948 33.0596 13.5003 33.0596H18.0003H22.5003C23.0526 33.0596 23.5003 32.6119 23.5003 32.0596C23.5003 31.5073 23.0526 31.0596 22.5003 31.0596H19.0003V28.5256C26.542 28.0119 32.5003 21.7316 32.5003 14.0596C32.5003 10.0558 30.8762 6.42942 28.2533 3.80653ZM10.0003 14.0596C10.0003 9.6413 13.582 6.05958 18.0003 6.05958C22.4186 6.05958 26.0003 9.6413 26.0003 14.0596C26.0003 18.4779 22.4186 22.0596 18.0003 22.0596C13.582 22.0596 10.0003 18.4779 10.0003 14.0596ZM18.0003 4.05958C12.4774 4.05958 8.00029 8.53673 8.00029 14.0596C8.00029 19.5824 12.4774 24.0596 18.0003 24.0596C23.5231 24.0596 28.0003 19.5824 28.0003 14.0596C28.0003 8.53673 23.5231 4.05958 18.0003 4.05958Z"
          fill="#22282F"
        />
      </svg>